<svg xmlns="http://www.w3.org/2000/svg" width="80" height="24" fill="none">
  <path fill="#000" d="M7.032 19.87c-.249 0-.483-.065-.703-.196A.62.62 0 0 1 6 19.11V4.738c0-.26.117-.449.351-.564.25-.116.52-.174.813-.174.293 0 .556.058.79.174.25.115.374.304.374.564V17.83h5.71c.234 0 .41.109.527.326.117.202.176.434.176.694 0 .246-.059.478-.176.695-.117.217-.293.326-.527.326H7.032ZM20.957 20c-.937 0-1.786-.16-2.547-.478a3.794 3.794 0 0 1-1.801-1.541c-.44-.71-.66-1.65-.66-2.822V4.739c0-.261.118-.45.352-.565.235-.116.505-.174.813-.174.278 0 .542.058.79.174.25.115.374.304.374.564v10.42c0 .956.234 1.665.703 2.128.468.449 1.127.673 1.976.673.835 0 1.494-.224 1.977-.673.483-.463.724-1.172.724-2.127V4.739c0-.261.118-.45.352-.565.234-.116.505-.174.812-.174.279 0 .542.058.791.174.249.115.373.304.373.564v10.42c0 1.173-.227 2.114-.68 2.823a3.795 3.795 0 0 1-1.801 1.541c-.762.319-1.61.478-2.548.478ZM33.498 20a6.15 6.15 0 0 1-2.438-.478 3.83 3.83 0 0 1-1.757-1.541c-.439-.71-.659-1.65-.659-2.822V8.84c0-1.172.22-2.113.66-2.822a3.811 3.811 0 0 1 1.778-1.541A6.15 6.15 0 0 1 33.52 4c1.01 0 1.881.174 2.613.521.747.333 1.325.796 1.735 1.39.425.578.637 1.251.637 2.018 0 .493-.095.818-.285.977-.19.145-.483.217-.879.217-.351 0-.63-.057-.834-.173a.699.699 0 0 1-.33-.586 4.878 4.878 0 0 0-.11-.673 2.098 2.098 0 0 0-.35-.76c-.162-.26-.41-.47-.748-.63-.336-.173-.797-.26-1.383-.26-.85 0-1.5.231-1.955.694-.454.45-.68 1.151-.68 2.106v6.318c0 .955.226 1.664.68 2.127.469.449 1.142.673 2.02.673.557 0 .996-.08 1.318-.238.337-.174.586-.384.747-.63.161-.26.271-.528.33-.803.058-.29.102-.55.131-.782.015-.275.125-.47.33-.586.22-.116.49-.174.812-.174.41 0 .71.08.9.24.191.158.286.477.286.954a3.65 3.65 0 0 1-.637 2.106c-.41.608-.988 1.086-1.735 1.433-.746.347-1.625.521-2.635.521ZM41.712 19.87c-.249 0-.483-.065-.703-.196a.62.62 0 0 1-.33-.564V4.76a.62.62 0 0 1 .33-.565c.22-.13.454-.195.703-.195h7.818c.279 0 .476.109.593.326a1.4 1.4 0 0 1 .176.673c0 .275-.066.52-.198.738a.64.64 0 0 1-.57.304h-6.523v4.971h3.382c.249 0 .44.094.57.282.133.189.198.406.198.652 0 .202-.058.405-.175.608-.117.188-.315.282-.593.282h-3.382v4.993h6.522a.64.64 0 0 1 .571.304c.132.203.198.449.198.738a1.4 1.4 0 0 1-.176.673c-.117.217-.314.326-.593.326h-7.818ZM60.807 19.935a.82.82 0 0 1-.527-.195c-.147-.13-.271-.29-.374-.478l-3.228-6.21h-2.196v6.058c0 .246-.125.434-.373.564a1.6 1.6 0 0 1-.791.196c-.293 0-.564-.065-.813-.196-.234-.13-.351-.318-.351-.564V4.738c0-.203.066-.376.198-.52.146-.146.344-.218.593-.218h4.172c.923 0 1.765.137 2.526.412.761.261 1.369.717 1.823 1.368.454.637.68 1.52.68 2.649 0 .868-.139 1.592-.417 2.17a3.488 3.488 0 0 1-1.098 1.39 4.687 4.687 0 0 1-1.56.738l3.076 5.71a.48.48 0 0 1 .065.174.633.633 0 0 1 .022.152c0 .188-.073.376-.22.564-.146.174-.329.318-.548.434a1.318 1.318 0 0 1-.66.174Zm-6.325-8.727h2.635c.82 0 1.472-.196 1.955-.587.498-.39.747-1.056.747-1.997 0-.94-.25-1.606-.747-1.997-.483-.39-1.135-.586-1.955-.586h-2.635v5.167ZM69.059 20c-.937 0-1.78-.16-2.526-.478a3.83 3.83 0 0 1-1.757-1.541c-.424-.71-.637-1.65-.637-2.822V8.84c0-1.172.213-2.113.637-2.822a3.83 3.83 0 0 1 1.757-1.541C67.28 4.159 68.122 4 69.059 4c.922 0 1.757.16 2.503.478.747.318 1.34.832 1.78 1.541.438.71.658 1.65.658 2.822v6.318c0 1.172-.22 2.113-.659 2.822a3.811 3.811 0 0 1-1.779 1.541c-.746.319-1.581.478-2.503.478Zm0-2.04c.805 0 1.442-.225 1.91-.674.469-.463.703-1.172.703-2.127V8.84c0-.955-.234-1.657-.703-2.106-.454-.463-1.09-.694-1.91-.694-.82 0-1.465.231-1.933.694-.454.45-.68 1.151-.68 2.106v6.318c0 .955.226 1.664.68 2.127.468.449 1.113.673 1.933.673Z"/>
</svg>